<svg width="317" height="168" viewBox="0 0 317 168" fill="none" xmlns="http://www.w3.org/2000/svg">
<path d="M49.9123 35.4893H36.4602C36.3459 34.3132 36.0682 33.2514 35.6271 32.304C35.2024 31.3565 34.6062 30.5398 33.8384 29.8537C33.087 29.1513 32.1804 28.6204 31.1186 28.261C30.0732 27.8853 28.8889 27.6974 27.5657 27.6974C25.2461 27.6974 23.2777 28.261 21.6605 29.3881C20.0433 30.5153 18.81 32.1406 17.9606 34.2642C17.1275 36.3878 16.7109 38.9361 16.7109 41.9091C16.7109 45.0455 17.1357 47.6673 17.9851 49.7745C18.8509 51.8817 20.0842 53.4663 21.685 54.5281C23.3022 55.5898 25.2379 56.1207 27.4922 56.1207C28.7663 56.1207 29.9098 55.9574 30.9226 55.6307C31.9517 55.304 32.842 54.8384 33.5934 54.234C34.3612 53.6133 34.9819 52.8619 35.4556 51.9798C35.9457 51.0977 36.2805 50.1012 36.4602 48.9904L49.9123 49.0884C49.7326 51.2283 49.12 53.3928 48.0746 55.5817C47.0455 57.7706 45.5916 59.7798 43.7131 61.6094C41.8345 63.4389 39.5149 64.9091 36.7543 66.0199C34.0099 67.1307 30.8246 67.6861 27.1982 67.6861C22.608 67.6861 18.4915 66.6978 14.8487 64.7212C11.2223 62.7283 8.35547 59.8125 6.24822 55.9737C4.14098 52.1349 3.08736 47.4467 3.08736 41.9091C3.08736 36.3388 4.15732 31.6424 6.29723 27.82C8.45348 23.9812 11.353 21.0735 14.9957 19.0969C18.6385 17.1204 22.706 16.1321 27.1982 16.1321C30.3345 16.1321 33.2259 16.565 35.8722 17.4307C38.5185 18.2802 40.8381 19.5298 42.831 21.1797C44.8239 22.8295 46.4329 24.8551 47.658 27.2564C48.8832 29.6413 49.6346 32.3857 49.9123 35.4893ZM104.572 41.9091C104.572 47.4794 103.494 52.1839 101.338 56.0227C99.1814 59.8452 96.2655 62.7447 92.5901 64.7212C88.9147 66.6978 84.8145 67.6861 80.2897 67.6861C75.7322 67.6861 71.6157 66.6896 67.9403 64.6967C64.2812 62.7038 61.3735 59.7962 59.2172 55.9737C57.061 52.1349 55.9829 47.4467 55.9829 41.9091C55.9829 36.3388 57.061 31.6424 59.2172 27.82C61.3735 23.9812 64.2812 21.0735 67.9403 19.0969C71.6157 17.1204 75.7322 16.1321 80.2897 16.1321C84.8145 16.1321 88.9147 17.1204 92.5901 19.0969C96.2655 21.0735 99.1814 23.9812 101.338 27.82C103.494 31.6424 104.572 36.3388 104.572 41.9091ZM90.9484 41.9091C90.9484 38.8381 90.5319 36.2489 89.6988 34.1417C88.882 32.0344 87.6814 30.4336 86.0969 29.3391C84.5123 28.2447 82.5766 27.6974 80.2897 27.6974C77.9864 27.6974 76.0425 28.2447 74.458 29.3391C72.8735 30.4336 71.6647 32.0344 70.8316 34.1417C70.0148 36.2489 69.6064 38.8381 69.6064 41.9091C69.6064 44.9801 70.0148 47.5692 70.8316 49.6765C71.6647 51.7837 72.8735 53.3846 74.458 54.479C76.0425 55.5735 77.9864 56.1207 80.2897 56.1207C82.5766 56.1207 84.5123 55.5735 86.0969 54.479C87.6814 53.3846 88.882 51.7837 89.6988 49.6765C90.5319 47.5692 90.9484 44.9801 90.9484 41.9091ZM154.282 16.8182V67H143.182L124.609 39.9979H124.315V67H111.059V16.8182H122.33L140.634 43.7223H141.026V16.8182H154.282ZM1.93572 111.526V100.818H45.2568V111.526H30.1385V151H17.054V111.526H1.93572ZM56.7118 151H42.4022L59.0641 100.818H77.0982L93.7356 151H79.4505L68.2772 114.344H67.8851L56.7118 151ZM54.2125 131.202H81.7537V141.174H54.2125V131.202ZM142.901 119.489H129.449C129.334 118.313 129.056 117.251 128.615 116.304C128.191 115.357 127.594 114.54 126.827 113.854C126.075 113.151 125.169 112.62 124.107 112.261C123.061 111.885 121.877 111.697 120.554 111.697C118.234 111.697 116.266 112.261 114.649 113.388C113.032 114.515 111.798 116.141 110.949 118.264C110.116 120.388 109.699 122.936 109.699 125.909C109.699 129.045 110.124 131.667 110.973 133.775C111.839 135.882 113.072 137.466 114.673 138.528C116.29 139.59 118.226 140.121 120.48 140.121C121.755 140.121 122.898 139.957 123.911 139.631C124.94 139.304 125.83 138.838 126.582 138.234C127.349 137.613 127.97 136.862 128.444 135.98C128.934 135.098 129.269 134.101 129.449 132.99L142.901 133.088C142.721 135.228 142.108 137.393 141.063 139.582C140.034 141.771 138.58 143.78 136.701 145.609C134.823 147.439 132.503 148.909 129.743 150.02C126.998 151.131 123.813 151.686 120.186 151.686C115.596 151.686 111.48 150.698 107.837 148.721C104.211 146.728 101.344 143.812 99.2365 139.974C97.1293 136.135 96.0756 131.447 96.0756 125.909C96.0756 120.339 97.1456 115.642 99.2855 111.82C101.442 107.981 104.341 105.074 107.984 103.097C111.627 101.12 115.694 100.132 120.186 100.132C123.323 100.132 126.214 100.565 128.86 101.431C131.507 102.28 133.826 103.53 135.819 105.18C137.812 106.83 139.421 108.855 140.646 111.256C141.871 113.641 142.623 116.386 142.901 119.489ZM147.82 111.526V100.818H191.141V111.526H176.022V151H162.938V111.526H147.82ZM210.449 100.818H226.939L238.848 129.879H239.436L251.369 100.818H267.859V151H254.897V121.548H254.48L243.111 150.632H235.197L223.803 121.376H223.411V151H210.449V100.818ZM274.597 151V100.818H310.469V111.526H287.853V120.543H308.632V131.251H287.853V140.292H310.396V151H274.597Z" fill="#2F527A"/>
<path d="M49.9123 35.4893H36.4602C36.3459 34.3132 36.0682 33.2514 35.6271 32.304C35.2024 31.3565 34.6062 30.5398 33.8384 29.8537C33.087 29.1513 32.1804 28.6204 31.1186 28.261C30.0732 27.8853 28.8889 27.6974 27.5657 27.6974C25.2461 27.6974 23.2777 28.261 21.6605 29.3881C20.0433 30.5153 18.81 32.1406 17.9606 34.2642C17.1275 36.3878 16.7109 38.9361 16.7109 41.9091C16.7109 45.0455 17.1357 47.6673 17.9851 49.7745C18.8509 51.8817 20.0842 53.4663 21.685 54.5281C23.3022 55.5898 25.2379 56.1207 27.4922 56.1207C28.7663 56.1207 29.9098 55.9574 30.9226 55.6307C31.9517 55.304 32.842 54.8384 33.5934 54.234C34.3612 53.6133 34.9819 52.8619 35.4556 51.9798C35.9457 51.0977 36.2805 50.1012 36.4602 48.9904L49.9123 49.0884C49.7326 51.2283 49.12 53.3928 48.0746 55.5817C47.0455 57.7706 45.5916 59.7798 43.7131 61.6094C41.8345 63.4389 39.5149 64.9091 36.7543 66.0199C34.0099 67.1307 30.8246 67.6861 27.1982 67.6861C22.608 67.6861 18.4915 66.6978 14.8487 64.7212C11.2223 62.7283 8.35547 59.8125 6.24822 55.9737C4.14098 52.1349 3.08736 47.4467 3.08736 41.9091C3.08736 36.3388 4.15732 31.6424 6.29723 27.82C8.45348 23.9812 11.353 21.0735 14.9957 19.0969C18.6385 17.1204 22.706 16.1321 27.1982 16.1321C30.3345 16.1321 33.2259 16.565 35.8722 17.4307C38.5185 18.2802 40.8381 19.5298 42.831 21.1797C44.8239 22.8295 46.4329 24.8551 47.658 27.2564C48.8832 29.6413 49.6346 32.3857 49.9123 35.4893ZM104.572 41.9091C104.572 47.4794 103.494 52.1839 101.338 56.0227C99.1814 59.8452 96.2655 62.7447 92.5901 64.7212C88.9147 66.6978 84.8145 67.6861 80.2897 67.6861C75.7322 67.6861 71.6157 66.6896 67.9403 64.6967C64.2812 62.7038 61.3735 59.7962 59.2172 55.9737C57.061 52.1349 55.9829 47.4467 55.9829 41.9091C55.9829 36.3388 57.061 31.6424 59.2172 27.82C61.3735 23.9812 64.2812 21.0735 67.9403 19.0969C71.6157 17.1204 75.7322 16.1321 80.2897 16.1321C84.8145 16.1321 88.9147 17.1204 92.5901 19.0969C96.2655 21.0735 99.1814 23.9812 101.338 27.82C103.494 31.6424 104.572 36.3388 104.572 41.9091ZM90.9484 41.9091C90.9484 38.8381 90.5319 36.2489 89.6988 34.1417C88.882 32.0344 87.6814 30.4336 86.0969 29.3391C84.5123 28.2447 82.5766 27.6974 80.2897 27.6974C77.9864 27.6974 76.0425 28.2447 74.458 29.3391C72.8735 30.4336 71.6647 32.0344 70.8316 34.1417C70.0148 36.2489 69.6064 38.8381 69.6064 41.9091C69.6064 44.9801 70.0148 47.5692 70.8316 49.6765C71.6647 51.7837 72.8735 53.3846 74.458 54.479C76.0425 55.5735 77.9864 56.1207 80.2897 56.1207C82.5766 56.1207 84.5123 55.5735 86.0969 54.479C87.6814 53.3846 88.882 51.7837 89.6988 49.6765C90.5319 47.5692 90.9484 44.9801 90.9484 41.9091ZM154.282 16.8182V67H143.182L124.609 39.9979H124.315V67H111.059V16.8182H122.33L140.634 43.7223H141.026V16.8182H154.282Z" fill="white"/>
</svg>
