<svg width="507" height="672" viewBox="0 0 507 672" fill="none" xmlns="http://www.w3.org/2000/svg">
<g filter="url(#filter0_d_11_32)">
<path d="M0.291194 153V0.272723H109.467V32.8615H40.6357V60.3047H103.874V92.8935H40.6357V120.411H109.244V153H0.291194ZM173.452 0.272723L199.18 45.6136H200.373L226.399 0.272723H271.442L225.728 76.6364L273.157 153H226.996L200.373 106.839H199.18L172.557 153H126.694L173.601 76.6364L128.111 0.272723H173.452ZM289.656 153V0.272723H354.834C366.219 0.272723 376.137 2.50994 384.589 6.98438C393.041 11.4588 399.603 17.723 404.276 25.777C408.95 33.831 411.286 43.2273 411.286 53.9659C411.286 64.804 408.9 74.2251 404.127 82.2294C399.355 90.1839 392.618 96.3239 383.918 100.649C375.267 104.974 365.125 107.137 353.492 107.137H314.191V75.6669H345.438C350.509 75.6669 354.809 74.7969 358.339 73.0568C361.869 71.267 364.553 68.7564 366.393 65.5249C368.282 62.2436 369.227 58.3906 369.227 53.9659C369.227 49.5412 368.282 45.7379 366.393 42.5561C364.553 39.3246 361.869 36.8636 358.339 35.1733C354.809 33.4332 350.509 32.5632 345.438 32.5632H330.001V153H289.656ZM0.291194 407V254.273H109.467V286.862H40.6357V314.305H103.874V346.893H40.6357V374.411H109.244V407H0.291194ZM130.721 407V254.273H195.898C207.283 254.273 217.202 256.336 225.653 260.462C234.105 264.589 240.668 270.53 245.341 278.286C250.014 285.991 252.351 295.214 252.351 305.952C252.351 316.79 249.964 325.963 245.192 333.47C240.419 340.928 233.683 346.57 224.982 350.398C216.332 354.227 206.19 356.141 194.556 356.141H155.032V324.67H186.502C191.573 324.67 195.874 324.049 199.403 322.806C202.933 321.513 205.618 319.475 207.457 316.691C209.347 313.907 210.291 310.327 210.291 305.952C210.291 301.478 209.347 297.824 207.457 294.99C205.618 292.156 202.933 290.043 199.403 288.651C195.874 287.259 191.573 286.563 186.502 286.563H171.065V407H130.721ZM219.315 336.975L257.496 407H213.572L176.286 336.975H219.315ZM310.929 254.273V407H270.584V254.273H310.929ZM369.525 407H325.974L376.684 254.273H431.57L482.206 407H438.73L404.724 295.438H403.531L369.525 407ZM361.919 346.744H445.74V377.096H361.919V346.744ZM131.839 508.273V661H98.0575L41.5305 578.82H40.6357V661H0.291194V508.273H34.5952L90.3018 590.155H91.495V508.273H131.839ZM294.075 565.098H253.134C252.786 561.518 251.941 558.287 250.598 555.403C249.306 552.52 247.491 550.034 245.154 547.946C242.868 545.808 240.108 544.192 236.877 543.099C233.695 541.955 230.091 541.384 226.064 541.384C219.004 541.384 213.013 543.099 208.091 546.529C203.169 549.96 199.416 554.906 196.831 561.369C194.295 567.832 193.027 575.588 193.027 584.636C193.027 594.182 194.32 602.161 196.905 608.575C199.54 614.988 203.294 619.81 208.166 623.042C213.088 626.273 218.979 627.889 225.84 627.889C229.718 627.889 233.198 627.392 236.28 626.398C239.412 625.403 242.122 623.987 244.409 622.147C246.745 620.258 248.635 617.971 250.076 615.286C251.568 612.602 252.587 609.569 253.134 606.188L294.075 606.487C293.528 612.999 291.664 619.587 288.482 626.249C285.35 632.911 280.925 639.026 275.208 644.594C269.49 650.162 262.431 654.636 254.029 658.017C245.676 661.398 235.982 663.088 224.945 663.088C210.975 663.088 198.446 660.08 187.36 654.065C176.323 647.999 167.598 639.125 161.184 627.442C154.771 615.759 151.564 601.49 151.564 584.636C151.564 567.683 154.821 553.39 161.333 541.756C167.896 530.073 176.721 521.224 187.807 515.208C198.894 509.192 211.273 506.185 224.945 506.185C234.49 506.185 243.29 507.502 251.344 510.137C259.398 512.722 266.458 516.526 272.523 521.547C278.588 526.568 283.485 532.733 287.214 540.041C290.943 547.3 293.23 555.652 294.075 565.098ZM313.445 661V508.273H422.622V540.862H353.79V568.305H417.029V600.893H353.79V628.411H422.398V661H313.445Z" fill="#2F527A"/>
</g>
<defs>
<filter id="filter0_d_11_32" x="0.291199" y="0.272705" width="505.915" height="670.815" filterUnits="userSpaceOnUse" color-interpolation-filters="sRGB">
<feFlood flood-opacity="0" result="BackgroundImageFix"/>
<feColorMatrix in="SourceAlpha" type="matrix" values="0 0 0 0 0 0 0 0 0 0 0 0 0 0 0 0 0 0 127 0" result="hardAlpha"/>
<feOffset dx="20" dy="4"/>
<feGaussianBlur stdDeviation="2"/>
<feComposite in2="hardAlpha" operator="out"/>
<feColorMatrix type="matrix" values="0 0 0 0 0 0 0 0 0 0 0 0 0 0 0 0 0 0 0.25 0"/>
<feBlend mode="normal" in2="BackgroundImageFix" result="effect1_dropShadow_11_32"/>
<feBlend mode="normal" in="SourceGraphic" in2="effect1_dropShadow_11_32" result="shape"/>
</filter>
</defs>
</svg>
