<svg width="1371" height="166" viewBox="0 0 1371 166" fill="none" xmlns="http://www.w3.org/2000/svg">
<g filter="url(#filter0_d_9_31)">
<path d="M0.291194 155V2.27272H109.467V34.8615H40.6357V62.3047H103.874V94.8935H40.6357V122.411H109.244V155H0.291194ZM173.452 2.27272L199.18 47.6136H200.373L226.399 2.27272H271.442L225.728 78.6364L273.157 155H226.996L200.373 108.839H199.18L172.557 155H126.694L173.601 78.6364L128.111 2.27272H173.452ZM289.656 155V2.27272H354.834C366.219 2.27272 376.137 4.50994 384.589 8.98438C393.041 13.4588 399.603 19.723 404.276 27.777C408.95 35.831 411.286 45.2273 411.286 55.9659C411.286 66.804 408.9 76.2251 404.127 84.2294C399.355 92.1839 392.618 98.3239 383.918 102.649C375.267 106.974 365.125 109.137 353.492 109.137H314.191V77.6669H345.438C350.509 77.6669 354.809 76.7969 358.339 75.0568C361.869 73.267 364.553 70.7564 366.393 67.5249C368.282 64.2436 369.227 60.3906 369.227 55.9659C369.227 51.5412 368.282 47.7379 366.393 44.5561C364.553 41.3246 361.869 38.8636 358.339 37.1733C354.809 35.4332 350.509 34.5632 345.438 34.5632H330.001V155H289.656ZM427.264 155V2.27272H536.44V34.8615H467.608V62.3047H530.847V94.8935H467.608V122.411H536.216V155H427.264ZM557.694 155V2.27272H622.871C634.256 2.27272 644.174 4.33593 652.626 8.46235C661.078 12.5888 667.64 18.5298 672.314 26.2855C676.987 33.9915 679.324 43.2138 679.324 53.9524C679.324 64.7905 676.937 73.9631 672.164 81.4702C667.392 88.9276 660.655 94.5703 651.955 98.3984C643.304 102.227 633.162 104.141 621.529 104.141H582.005V72.6705H613.475C618.546 72.6705 622.846 72.049 626.376 70.8061C629.906 69.5135 632.591 67.4751 634.43 64.691C636.319 61.907 637.264 58.3274 637.264 53.9524C637.264 49.478 636.319 45.8239 634.43 42.9901C632.591 40.1562 629.906 38.0433 626.376 36.6513C622.846 35.2592 618.546 34.5632 613.475 34.5632H598.038V155H557.694ZM646.287 84.9751L684.469 155H640.545L603.258 84.9751H646.287ZM737.901 2.27272V155H697.557V2.27272H737.901ZM796.498 155H752.947L803.657 2.27272H858.543L909.179 155H865.702L831.697 43.4375H830.503L796.498 155ZM788.891 94.7443H872.712V125.096H788.891V94.7443ZM1055.92 2.27272V155H1022.14L965.613 72.8196H964.718V155H924.373V2.27272H958.677L1014.38 84.1548H1015.58V2.27272H1055.92ZM1218.16 59.098H1177.22C1176.87 55.5185 1176.02 52.2869 1174.68 49.4034C1173.39 46.5199 1171.57 44.0341 1169.24 41.946C1166.95 39.8082 1164.19 38.1925 1160.96 37.0987C1157.78 35.9552 1154.17 35.3835 1150.15 35.3835C1143.09 35.3835 1137.1 37.0987 1132.17 40.5291C1127.25 43.9595 1123.5 48.9062 1120.91 55.3693C1118.38 61.8324 1117.11 69.5881 1117.11 78.6364C1117.11 88.1818 1118.4 96.1612 1120.99 102.575C1123.62 108.988 1127.38 113.81 1132.25 117.042C1137.17 120.273 1143.06 121.889 1149.92 121.889C1153.8 121.889 1157.28 121.392 1160.36 120.398C1163.49 119.403 1166.2 117.987 1168.49 116.147C1170.83 114.258 1172.72 111.971 1174.16 109.286C1175.65 106.602 1176.67 103.569 1177.22 100.188L1218.16 100.487C1217.61 106.999 1215.75 113.587 1212.56 120.249C1209.43 126.911 1205.01 133.026 1199.29 138.594C1193.57 144.162 1186.51 148.636 1178.11 152.017C1169.76 155.398 1160.06 157.088 1149.03 157.088C1135.06 157.088 1122.53 154.08 1111.44 148.065C1100.4 141.999 1091.68 133.125 1085.27 121.442C1078.85 109.759 1075.65 95.4901 1075.65 78.6364C1075.65 61.6832 1078.9 47.3899 1085.42 35.7564C1091.98 24.0731 1100.8 15.2237 1111.89 9.20809C1122.98 3.19247 1135.36 0.184653 1149.03 0.184653C1158.57 0.184653 1167.37 1.50212 1175.43 4.13706C1183.48 6.72229 1190.54 10.5256 1196.61 15.5469C1202.67 20.5682 1207.57 26.7329 1211.3 34.0412C1215.02 41.2997 1217.31 49.652 1218.16 59.098ZM1237.53 155V2.27272H1346.7V34.8615H1277.87V62.3047H1341.11V94.8935H1277.87V122.411H1346.48V155H1237.53Z" fill="#2F527A"/>
</g>
<defs>
<filter id="filter0_d_9_31" x="0.291195" y="0.184631" width="1370.41" height="164.903" filterUnits="userSpaceOnUse" color-interpolation-filters="sRGB">
<feFlood flood-opacity="0" result="BackgroundImageFix"/>
<feColorMatrix in="SourceAlpha" type="matrix" values="0 0 0 0 0 0 0 0 0 0 0 0 0 0 0 0 0 0 127 0" result="hardAlpha"/>
<feOffset dx="20" dy="4"/>
<feGaussianBlur stdDeviation="2"/>
<feComposite in2="hardAlpha" operator="out"/>
<feColorMatrix type="matrix" values="0 0 0 0 0 0 0 0 0 0 0 0 0 0 0 0 0 0 0.25 0"/>
<feBlend mode="normal" in2="BackgroundImageFix" result="effect1_dropShadow_9_31"/>
<feBlend mode="normal" in="SourceGraphic" in2="effect1_dropShadow_9_31" result="shape"/>
</filter>
</defs>
</svg>
