<svg width="425" height="49" viewBox="0 0 425 49" fill="none" xmlns="http://www.w3.org/2000/svg">
<path d="M0.046875 48V0.727271H33.2855V11.0682H12.8807V19.1932H31.2543V29.5341H12.8807V48H0.046875ZM44.3824 48H30.5329L46.1366 0.727271H63.6792L79.2829 48H65.4335L55.0926 13.7457H54.7233L44.3824 48ZM41.7971 29.3494H67.8341V38.9517H41.7971V29.3494ZM125.748 18.4545H112.729C112.637 17.3774 112.391 16.4002 111.991 15.5231C111.606 14.646 111.067 13.8919 110.375 13.261C109.698 12.6147 108.875 12.1223 107.905 11.7837C106.936 11.4298 105.835 11.2528 104.604 11.2528C102.45 11.2528 100.626 11.776 99.1338 12.8224C97.6565 13.8688 96.5332 15.3692 95.7638 17.3235C95.0097 19.2778 94.6327 21.6245 94.6327 24.3636C94.6327 27.2566 95.0174 29.6803 95.7868 31.6346C96.5716 33.5735 97.7027 35.0354 99.18 36.0202C100.657 36.9897 102.435 37.4744 104.512 37.4744C105.697 37.4744 106.759 37.3282 107.697 37.0359C108.636 36.7281 109.452 36.2895 110.144 35.7202C110.837 35.1508 111.398 34.466 111.829 33.6658C112.275 32.8503 112.575 31.9347 112.729 30.919L125.748 31.0114C125.594 33.0118 125.032 35.0508 124.063 37.1282C123.093 39.1902 121.716 41.0984 119.931 42.8526C118.161 44.5915 115.969 45.9918 113.353 47.0536C110.737 48.1154 107.697 48.6463 104.235 48.6463C99.8955 48.6463 96.0023 47.7153 92.5553 45.8533C89.1237 43.9914 86.4077 41.2522 84.4072 37.636C82.4221 34.0198 81.4296 29.5956 81.4296 24.3636C81.4296 19.1009 82.4452 14.669 84.4765 11.0682C86.5077 7.45194 89.2468 4.72052 92.6938 2.87393C96.1408 1.01195 99.9878 0.0809641 104.235 0.0809641C107.22 0.0809641 109.967 0.488753 112.475 1.30433C114.984 2.11991 117.184 3.3125 119.077 4.8821C120.97 6.43631 122.493 8.35215 123.647 10.6296C124.801 12.9071 125.502 15.5154 125.748 18.4545ZM144.404 0.727271V48H131.57V0.727271H144.404ZM150.486 48V0.727271H163.32V37.6591H182.432V48H150.486ZM200.454 0.727271V48H187.62V0.727271H200.454ZM205.244 11.0682V0.727271H246.33V11.0682H232.111V48H219.462V11.0682H205.244ZM257.473 48H243.624L259.227 0.727271H276.77L292.374 48H278.524L268.183 13.7457H267.814L257.473 48ZM254.888 29.3494H280.925V38.9517H254.888V29.3494ZM289.667 11.0682V0.727271H330.754V11.0682H316.535V48H303.886V11.0682H289.667ZM379.158 24.3636C379.158 29.6264 378.134 34.0659 376.088 37.6822C374.041 41.283 371.279 44.0144 367.801 45.8764C364.323 47.723 360.446 48.6463 356.168 48.6463C351.859 48.6463 347.966 47.7153 344.488 45.8533C341.026 43.976 338.271 41.2369 336.225 37.636C334.193 34.0198 333.178 29.5956 333.178 24.3636C333.178 19.1009 334.193 14.669 336.225 11.0682C338.271 7.45194 341.026 4.72052 344.488 2.87393C347.966 1.01195 351.859 0.0809641 356.168 0.0809641C360.446 0.0809641 364.323 1.01195 367.801 2.87393C371.279 4.72052 374.041 7.45194 376.088 11.0682C378.134 14.669 379.158 19.1009 379.158 24.3636ZM365.955 24.3636C365.955 21.5322 365.578 19.147 364.824 17.2081C364.085 15.2538 362.985 13.7765 361.523 12.7763C360.076 11.7607 358.291 11.2528 356.168 11.2528C354.044 11.2528 352.251 11.7607 350.79 12.7763C349.343 13.7765 348.243 15.2538 347.489 17.2081C346.75 19.147 346.381 21.5322 346.381 24.3636C346.381 27.1951 346.75 29.5879 347.489 31.5423C348.243 33.4812 349.343 34.9585 350.79 35.9741C352.251 36.9743 354.044 37.4744 356.168 37.4744C358.291 37.4744 360.076 36.9743 361.523 35.9741C362.985 34.9585 364.085 33.4812 364.824 31.5423C365.578 29.5879 365.955 27.1951 365.955 24.3636ZM385.096 48V0.727271H405.501C409.009 0.727271 412.079 1.36588 414.71 2.64311C417.342 3.92034 419.388 5.75923 420.85 8.1598C422.312 10.5604 423.043 13.438 423.043 16.7926C423.043 20.178 422.289 23.0326 420.781 25.3562C419.288 27.6798 417.188 29.4341 414.48 30.619C411.787 31.8039 408.64 32.3963 405.039 32.3963H392.851V22.4247H402.454C403.962 22.4247 405.247 22.2401 406.308 21.8707C407.386 21.486 408.209 20.8782 408.778 20.0472C409.363 19.2163 409.655 18.1314 409.655 16.7926C409.655 15.4384 409.363 14.3382 408.778 13.4918C408.209 12.6301 407.386 11.9992 406.308 11.5991C405.247 11.1836 403.962 10.9758 402.454 10.9758H397.93V48H385.096ZM412.795 26.3026L424.613 48H410.671L399.13 26.3026H412.795Z" fill="white"/>
</svg>
