<svg width="127" height="129" viewBox="0 0 127 129" fill="none" xmlns="http://www.w3.org/2000/svg">
<path d="M64.4082 55.2032V77.2898H100.938C99.4623 86.7632 89.9031 105.06 64.4082 105.06C42.4289 105.06 24.4805 86.8705 24.4805 64.4082C24.4805 41.9458 42.4342 23.7559 64.4082 23.7559C76.9141 23.7559 85.2925 29.0642 90.0909 33.6801L107.556 16.8374C96.3385 6.36567 81.793 0 64.4082 0C28.7958 0 0 28.7958 0 64.4082C0 100.021 28.7958 128.816 64.4082 128.816C101.582 128.816 126.24 102.683 126.24 65.8788C126.24 61.6494 125.784 58.4182 125.226 55.2032H64.4082Z" fill="white"/>
</svg>
