<svg width="199" height="49" viewBox="0 0 199 49" fill="none" xmlns="http://www.w3.org/2000/svg">
<path d="M31.7464 16.331C31.5464 15.5154 31.2309 14.7998 30.8001 14.1843C30.3692 13.5534 29.8306 13.0225 29.1843 12.5916C28.5534 12.1454 27.8147 11.8145 26.9684 11.5991C26.1374 11.3683 25.2218 11.2528 24.2216 11.2528C22.0672 11.2528 20.2283 11.7683 18.7049 12.7994C17.1969 13.8304 16.0427 15.3153 15.2425 17.2543C14.4577 19.1932 14.0653 21.5322 14.0653 24.2713C14.0653 27.0412 14.4424 29.411 15.1964 31.3807C15.9504 33.3504 17.0737 34.8584 18.5664 35.9048C20.0591 36.9512 21.9134 37.4744 24.1293 37.4744C26.0836 37.4744 27.707 37.1897 28.9996 36.6204C30.3076 36.051 31.2848 35.2431 31.9311 34.1967C32.5774 33.1503 32.9006 31.9193 32.9006 30.5035L35.1165 30.7344H24.3139V21.5938H45.2727V28.1491C45.2727 32.4579 44.3571 36.1433 42.5259 39.2056C40.7101 42.2525 38.2018 44.5915 35.0011 46.2227C31.8157 47.8384 28.161 48.6463 24.0369 48.6463C19.4358 48.6463 15.3964 47.6692 11.9187 45.7148C8.44093 43.7605 5.72491 40.9753 3.7706 37.359C1.83168 33.7428 0.862216 29.4418 0.862216 24.456C0.862216 20.5473 1.45466 17.085 2.63956 14.0689C3.83984 11.0528 5.50178 8.50604 7.62536 6.42862C9.74894 4.33582 12.2034 2.75852 14.9886 1.69673C17.7739 0.619553 20.7592 0.0809641 23.9446 0.0809641C26.7453 0.0809641 29.3459 0.481059 31.7464 1.28125C34.1624 2.06605 36.2937 3.18939 38.1403 4.65128C40.0022 6.09777 41.5026 7.81356 42.6413 9.79865C43.7801 11.7837 44.4725 13.9612 44.7188 16.331H31.7464ZM79.2327 0.727271H92.0665V31.0114C92.0665 34.6122 91.2048 37.7283 89.4813 40.3597C87.7732 42.9757 85.388 44.9993 82.3257 46.4304C79.2635 47.8461 75.7088 48.554 71.6617 48.554C67.5838 48.554 64.0137 47.8461 60.9514 46.4304C57.8892 44.9993 55.504 42.9757 53.7959 40.3597C52.1032 37.7283 51.2568 34.6122 51.2568 31.0114V0.727271H64.0906V29.9034C64.0906 31.3653 64.4138 32.6733 65.0601 33.8274C65.7064 34.9661 66.5989 35.8587 67.7377 36.505C68.8918 37.1513 70.1998 37.4744 71.6617 37.4744C73.1389 37.4744 74.4469 37.1513 75.5857 36.505C76.7244 35.8587 77.6169 34.9661 78.2632 33.8274C78.9095 32.6733 79.2327 31.3653 79.2327 29.9034V0.727271ZM111 0.727271V48H98.166V0.727271H111ZM135.271 48H117.082V0.727271H135.086C139.949 0.727271 144.15 1.67365 147.689 3.56641C151.244 5.44377 153.983 8.1521 155.907 11.6914C157.846 15.2153 158.815 19.4394 158.815 24.3636C158.815 29.2879 157.853 33.5196 155.93 37.0589C154.006 40.5829 151.282 43.2912 147.759 45.1839C144.235 47.0613 140.072 48 135.271 48ZM129.916 37.1051H134.809C137.148 37.1051 139.141 36.7281 140.788 35.9741C142.45 35.2201 143.711 33.9197 144.573 32.0732C145.45 30.2266 145.889 27.6567 145.889 24.3636C145.889 21.0705 145.443 18.5007 144.55 16.6541C143.673 14.8075 142.38 13.5072 140.672 12.7532C138.98 11.9992 136.902 11.6222 134.44 11.6222H129.916V37.1051ZM164.753 48V0.727271H198.823V11.0682H177.587V19.1932H197.068V29.5341H177.587V37.6591H198.73V48H164.753Z" fill="white"/>
</svg>
