<svg width="407" height="49" viewBox="0 0 407 49" fill="none" xmlns="http://www.w3.org/2000/svg">
<path d="M0.046875 48V0.727271H12.8807V19.1932H29.8693V0.727271H42.7031V48H29.8693V29.5341H12.8807V48H0.046875ZM94.5923 24.3636C94.5923 29.6264 93.569 34.0659 91.5224 37.6822C89.4757 41.283 86.7135 44.0144 83.2358 45.8764C79.7581 47.723 75.8802 48.6463 71.6023 48.6463C67.2936 48.6463 63.4003 47.7153 59.9226 45.8533C56.4602 43.976 53.7057 41.2369 51.6591 37.636C49.6278 34.0198 48.6122 29.5956 48.6122 24.3636C48.6122 19.1009 49.6278 14.669 51.6591 11.0682C53.7057 7.45194 56.4602 4.72052 59.9226 2.87393C63.4003 1.01195 67.2936 0.0809641 71.6023 0.0809641C75.8802 0.0809641 79.7581 1.01195 83.2358 2.87393C86.7135 4.72052 89.4757 7.45194 91.5224 11.0682C93.569 14.669 94.5923 19.1009 94.5923 24.3636ZM81.3892 24.3636C81.3892 21.5322 81.0122 19.147 80.2582 17.2081C79.5195 15.2538 78.4193 13.7765 76.9574 12.7763C75.5109 11.7607 73.7259 11.2528 71.6023 11.2528C69.4787 11.2528 67.686 11.7607 66.2241 12.7763C64.7776 13.7765 63.6773 15.2538 62.9233 17.2081C62.1847 19.147 61.8153 21.5322 61.8153 24.3636C61.8153 27.1951 62.1847 29.5879 62.9233 31.5423C63.6773 33.4812 64.7776 34.9585 66.2241 35.9741C67.686 36.9743 69.4787 37.4744 71.6023 37.4744C73.7259 37.4744 75.5109 36.9743 76.9574 35.9741C78.4193 34.9585 79.5195 33.4812 80.2582 31.5423C81.0122 29.5879 81.3892 27.1951 81.3892 24.3636ZM100.53 0.727271H116.503L127.491 27.5028H128.044L139.032 0.727271H155.005V48H142.448V20.6705H142.079L131.553 47.6307H123.982L113.456 20.4858H113.087V48H100.53V0.727271ZM161.087 48V0.727271H195.157V11.0682H173.921V19.1932H193.402V29.5341H173.921V37.6591H195.064V48H161.087ZM224.973 19.5625V29.1648H202.814V19.5625H224.973ZM257.854 15.5C257.731 13.9612 257.154 12.7609 256.123 11.8991C255.107 11.0374 253.561 10.6065 251.483 10.6065C250.16 10.6065 249.075 10.7681 248.229 11.0913C247.398 11.399 246.782 11.8222 246.382 12.3608C245.982 12.8994 245.774 13.5149 245.759 14.2074C245.728 14.7768 245.828 15.2923 246.059 15.7539C246.305 16.2002 246.69 16.608 247.213 16.9773C247.736 17.3312 248.406 17.6544 249.221 17.9467C250.037 18.2391 251.006 18.5007 252.13 18.7315L256.007 19.5625C258.623 20.1165 260.862 20.8474 262.724 21.7553C264.586 22.6632 266.11 23.7327 267.295 24.9638C268.48 26.1795 269.349 27.549 269.903 29.0724C270.472 30.5959 270.765 32.2578 270.78 34.0582C270.765 37.1667 269.988 39.7981 268.449 41.9524C266.91 44.1068 264.71 45.7456 261.847 46.869C259 47.9923 255.577 48.554 251.576 48.554C247.467 48.554 243.882 47.9461 240.819 46.7305C237.772 45.5148 235.403 43.6451 233.71 41.1214C232.033 38.5824 231.186 35.3355 231.171 31.3807H243.358C243.435 32.8272 243.797 34.0428 244.443 35.0277C245.089 36.0125 245.997 36.7589 247.167 37.2667C248.352 37.7745 249.76 38.0284 251.391 38.0284C252.761 38.0284 253.907 37.8591 254.83 37.5206C255.754 37.1821 256.454 36.7127 256.931 36.1126C257.408 35.5124 257.654 34.8277 257.669 34.0582C257.654 33.335 257.415 32.7041 256.954 32.1655C256.508 31.6115 255.769 31.1191 254.738 30.6882C253.707 30.2419 252.314 29.8265 250.56 29.4418L245.851 28.4261C241.666 27.5182 238.365 26.0025 235.949 23.8789C233.548 21.7399 232.356 18.8239 232.371 15.1307C232.356 12.13 233.156 9.50627 234.772 7.25959C236.403 4.99751 238.657 3.23556 241.535 1.97372C244.428 0.711883 247.744 0.0809641 251.483 0.0809641C255.3 0.0809641 258.6 0.719577 261.386 1.9968C264.171 3.27403 266.318 5.07446 267.826 7.39808C269.349 9.70632 270.118 12.407 270.134 15.5H257.854ZM274.369 11.0682V0.727271H315.456V11.0682H301.237V48H288.588V11.0682H274.369ZM326.599 48H312.75L328.353 0.727271H345.896L361.5 48H347.65L337.309 13.7457H336.94L326.599 48ZM324.014 29.3494H350.051V38.9517H324.014V29.3494ZM359.29 0.727271H373.601L382.834 19.9318H383.203L392.436 0.727271H406.747L389.389 33.1349V48H376.648V33.1349L359.29 0.727271Z" fill="white"/>
</svg>
