<svg width="442" height="128" viewBox="0 0 442 128" fill="none" xmlns="http://www.w3.org/2000/svg">
<path d="M0.220215 48V0.727271H13.054V19.1932H30.0427V0.727271H42.8765V48H30.0427V29.5341H13.054V48H0.220215ZM94.7657 24.3636C94.7657 29.6264 93.7424 34.0659 91.6957 37.6822C89.6491 41.283 86.8869 44.0144 83.4091 45.8764C79.9314 47.723 76.0535 48.6463 71.7756 48.6463C67.4669 48.6463 63.5737 47.7153 60.0959 45.8533C56.6336 43.976 53.8791 41.2369 51.8324 37.636C49.8012 34.0198 48.7856 29.5956 48.7856 24.3636C48.7856 19.1009 49.8012 14.669 51.8324 11.0682C53.8791 7.45194 56.6336 4.72052 60.0959 2.87393C63.5737 1.01195 67.4669 0.0809641 71.7756 0.0809641C76.0535 0.0809641 79.9314 1.01195 83.4091 2.87393C86.8869 4.72052 89.6491 7.45194 91.6957 11.0682C93.7424 14.669 94.7657 19.1009 94.7657 24.3636ZM81.5625 24.3636C81.5625 21.5322 81.1855 19.147 80.4315 17.2081C79.6929 15.2538 78.5926 13.7765 77.1307 12.7763C75.6842 11.7607 73.8992 11.2528 71.7756 11.2528C69.652 11.2528 67.8593 11.7607 66.3974 12.7763C64.9509 13.7765 63.8507 15.2538 63.0966 17.2081C62.358 19.147 61.9887 21.5322 61.9887 24.3636C61.9887 27.1951 62.358 29.5879 63.0966 31.5423C63.8507 33.4812 64.9509 34.9585 66.3974 35.9741C67.8593 36.9743 69.652 37.4744 71.7756 37.4744C73.8992 37.4744 75.6842 36.9743 77.1307 35.9741C78.5926 34.9585 79.6929 33.4812 80.4315 31.5423C81.1855 29.5879 81.5625 27.1951 81.5625 24.3636ZM97.1893 11.0682V0.727271H138.276V11.0682H124.057V48H111.408V11.0682H97.1893ZM143.106 48V0.727271H177.176V11.0682H155.94V19.1932H175.421V29.5341H155.94V37.6591H177.083V48H143.106ZM183.541 48V0.727271H196.374V37.6591H215.487V48H183.541ZM244.126 19.5625V29.1648H221.967V19.5625H244.126ZM251.524 48V0.727271H272.021C275.622 0.727271 278.646 1.212 281.092 2.18146C283.555 3.15092 285.409 4.52048 286.655 6.29013C287.917 8.05978 288.548 10.1449 288.548 12.5455C288.548 14.2843 288.163 15.8693 287.394 17.3004C286.64 18.7315 285.578 19.9318 284.209 20.9013C282.839 21.8553 281.239 22.517 279.407 22.8864V23.348C281.439 23.425 283.285 23.9405 284.947 24.8945C286.609 25.8332 287.933 27.1335 288.917 28.7955C289.902 30.442 290.395 32.3809 290.395 34.6122C290.395 37.1974 289.718 39.498 288.363 41.5138C287.025 43.5297 285.116 45.1147 282.639 46.2688C280.161 47.4229 277.207 48 273.775 48H251.524ZM264.358 37.7514H270.359C272.514 37.7514 274.129 37.3513 275.206 36.5511C276.284 35.7356 276.822 34.5353 276.822 32.9503C276.822 31.8423 276.568 30.9036 276.061 30.1342C275.553 29.3648 274.829 28.7801 273.891 28.38C272.967 27.9799 271.852 27.7798 270.544 27.7798H264.358V37.7514ZM264.358 19.8395H269.621C270.744 19.8395 271.736 19.6625 272.598 19.3086C273.46 18.9547 274.129 18.4469 274.606 17.7852C275.099 17.1081 275.345 16.2848 275.345 15.3153C275.345 13.8535 274.822 12.7378 273.775 11.9684C272.729 11.1836 271.406 10.7912 269.805 10.7912H264.358V19.8395ZM340.737 24.3636C340.737 29.6264 339.714 34.0659 337.667 37.6822C335.621 41.283 332.859 44.0144 329.381 45.8764C325.903 47.723 322.025 48.6463 317.747 48.6463C313.439 48.6463 309.545 47.7153 306.068 45.8533C302.605 43.976 299.851 41.2369 297.804 37.636C295.773 34.0198 294.757 29.5956 294.757 24.3636C294.757 19.1009 295.773 14.669 297.804 11.0682C299.851 7.45194 302.605 4.72052 306.068 2.87393C309.545 1.01195 313.439 0.0809641 317.747 0.0809641C322.025 0.0809641 325.903 1.01195 329.381 2.87393C332.859 4.72052 335.621 7.45194 337.667 11.0682C339.714 14.669 340.737 19.1009 340.737 24.3636ZM327.534 24.3636C327.534 21.5322 327.157 19.147 326.403 17.2081C325.665 15.2538 324.564 13.7765 323.102 12.7763C321.656 11.7607 319.871 11.2528 317.747 11.2528C315.624 11.2528 313.831 11.7607 312.369 12.7763C310.923 13.7765 309.822 15.2538 309.068 17.2081C308.33 19.147 307.96 21.5322 307.96 24.3636C307.96 27.1951 308.33 29.5879 309.068 31.5423C309.822 33.4812 310.923 34.9585 312.369 35.9741C313.831 36.9743 315.624 37.4744 317.747 37.4744C319.871 37.4744 321.656 36.9743 323.102 35.9741C324.564 34.9585 325.665 33.4812 326.403 31.5423C327.157 29.5879 327.534 27.1951 327.534 24.3636ZM392.471 24.3636C392.471 29.6264 391.447 34.0659 389.401 37.6822C387.354 41.283 384.592 44.0144 381.114 45.8764C377.636 47.723 373.759 48.6463 369.481 48.6463C365.172 48.6463 361.279 47.7153 357.801 45.8533C354.339 43.976 351.584 41.2369 349.538 37.636C347.506 34.0198 346.491 29.5956 346.491 24.3636C346.491 19.1009 347.506 14.669 349.538 11.0682C351.584 7.45194 354.339 4.72052 357.801 2.87393C361.279 1.01195 365.172 0.0809641 369.481 0.0809641C373.759 0.0809641 377.636 1.01195 381.114 2.87393C384.592 4.72052 387.354 7.45194 389.401 11.0682C391.447 14.669 392.471 19.1009 392.471 24.3636ZM379.268 24.3636C379.268 21.5322 378.891 19.147 378.137 17.2081C377.398 15.2538 376.298 13.7765 374.836 12.7763C373.389 11.7607 371.604 11.2528 369.481 11.2528C367.357 11.2528 365.564 11.7607 364.102 12.7763C362.656 13.7765 361.556 15.2538 360.802 17.2081C360.063 19.147 359.694 21.5322 359.694 24.3636C359.694 27.1951 360.063 29.5879 360.802 31.5423C361.556 33.4812 362.656 34.9585 364.102 35.9741C365.564 36.9743 367.357 37.4744 369.481 37.4744C371.604 37.4744 373.389 36.9743 374.836 35.9741C376.298 34.9585 377.398 33.4812 378.137 31.5423C378.891 29.5879 379.268 27.1951 379.268 24.3636ZM398.409 48V0.727271H411.242V19.8395H411.889L426.108 0.727271H441.065L425.092 21.7784L441.434 48H426.108L415.49 30.2727L411.242 35.8125V48H398.409ZM104.668 94.5C104.545 92.9612 103.968 91.7609 102.937 90.8991C101.921 90.0374 100.375 89.6065 98.2973 89.6065C96.9739 89.6065 95.889 89.7681 95.0427 90.0913C94.2117 90.399 93.5962 90.8222 93.1961 91.3608C92.796 91.8994 92.5882 92.5149 92.5728 93.2074C92.5421 93.7768 92.6421 94.2923 92.8729 94.7539C93.1191 95.2002 93.5038 95.608 94.027 95.9773C94.5502 96.3312 95.2196 96.6544 96.0352 96.9467C96.8508 97.2391 97.8202 97.5007 98.9436 97.7315L102.821 98.5625C105.437 99.1165 107.676 99.8474 109.538 100.755C111.4 101.663 112.924 102.733 114.109 103.964C115.294 105.179 116.163 106.549 116.717 108.072C117.286 109.596 117.579 111.258 117.594 113.058C117.579 116.167 116.802 118.798 115.263 120.952C113.724 123.107 111.523 124.746 108.661 125.869C105.814 126.992 102.391 127.554 98.3896 127.554C94.2809 127.554 90.6955 126.946 87.6332 125.73C84.5863 124.515 82.2165 122.645 80.5238 120.121C78.8465 117.582 78.0002 114.335 77.9848 110.381H90.1723C90.2492 111.827 90.6108 113.043 91.2571 114.028C91.9035 115.013 92.8114 115.759 93.9809 116.267C95.1658 116.775 96.5738 117.028 98.2049 117.028C99.5745 117.028 100.721 116.859 101.644 116.521C102.568 116.182 103.268 115.713 103.745 115.113C104.222 114.512 104.468 113.828 104.483 113.058C104.468 112.335 104.229 111.704 103.768 111.165C103.322 110.612 102.583 110.119 101.552 109.688C100.521 109.242 99.1282 108.826 97.374 108.442L92.6652 107.426C88.4796 106.518 85.1788 105.002 82.7628 102.879C80.3623 100.74 79.1697 97.8239 79.1851 94.1307C79.1697 91.13 79.9699 88.5063 81.5856 86.2596C83.2168 83.9975 85.4712 82.2356 88.3488 80.9737C91.2418 79.7119 94.5579 79.081 98.2973 79.081C102.114 79.081 105.414 79.7196 108.2 80.9968C110.985 82.274 113.132 84.0745 114.64 86.3981C116.163 88.7063 116.932 91.407 116.948 94.5H104.668ZM122.476 127V79.7273H156.546V90.0682H135.31V98.1932H154.791V108.534H135.31V116.659H156.453V127H122.476ZM162.911 127V79.7273H183.315C186.824 79.7273 189.894 80.3659 192.525 81.6431C195.157 82.9203 197.203 84.7592 198.665 87.1598C200.127 89.5604 200.858 92.438 200.858 95.7926C200.858 99.178 200.104 102.033 198.596 104.356C197.103 106.68 195.003 108.434 192.295 109.619C189.602 110.804 186.455 111.396 182.854 111.396H170.666V101.425H180.269C181.777 101.425 183.062 101.24 184.123 100.871C185.201 100.486 186.024 99.8782 186.593 99.0472C187.178 98.2163 187.47 97.1314 187.47 95.7926C187.47 94.4384 187.178 93.3382 186.593 92.4918C186.024 91.6301 185.201 90.9992 184.123 90.5991C183.062 90.1836 181.777 89.9758 180.269 89.9758H175.744V127H162.911ZM190.61 105.303L202.428 127H188.486L176.945 105.303H190.61ZM217.795 79.7273L227.489 113.058H227.859L237.553 79.7273H252.049L236.445 127H218.903L203.299 79.7273H217.795ZM269.436 79.7273V127H256.602V79.7273H269.436ZM319.652 97.4545H306.633C306.541 96.3774 306.295 95.4002 305.894 94.5231C305.51 93.646 304.971 92.8919 304.279 92.261C303.602 91.6147 302.778 91.1223 301.809 90.7837C300.839 90.4298 299.739 90.2528 298.508 90.2528C296.354 90.2528 294.53 90.776 293.038 91.8224C291.56 92.8688 290.437 94.3692 289.668 96.3235C288.914 98.2778 288.537 100.625 288.537 103.364C288.537 106.257 288.921 108.68 289.691 110.635C290.475 112.574 291.606 114.035 293.084 115.02C294.561 115.99 296.338 116.474 298.416 116.474C299.601 116.474 300.662 116.328 301.601 116.036C302.54 115.728 303.355 115.29 304.048 114.72C304.74 114.151 305.302 113.466 305.733 112.666C306.179 111.85 306.479 110.935 306.633 109.919L319.652 110.011C319.498 112.012 318.936 114.051 317.967 116.128C316.997 118.19 315.62 120.098 313.835 121.853C312.065 123.592 309.872 124.992 307.256 126.054C304.64 127.115 301.601 127.646 298.139 127.646C293.799 127.646 289.906 126.715 286.459 124.853C283.028 122.991 280.312 120.252 278.311 116.636C276.326 113.02 275.333 108.596 275.333 103.364C275.333 98.1009 276.349 93.669 278.38 90.0682C280.412 86.4519 283.151 83.7205 286.598 81.8739C290.045 80.012 293.892 79.081 298.139 79.081C301.124 79.081 303.871 79.4888 306.379 80.3043C308.888 81.1199 311.088 82.3125 312.981 83.8821C314.874 85.4363 316.397 87.3522 317.551 89.6296C318.705 91.9071 319.405 94.5154 319.652 97.4545ZM325.474 127V79.7273H359.544V90.0682H338.308V98.1932H357.789V108.534H338.308V116.659H359.451V127H325.474Z" fill="white"/>
</svg>
