<svg width="305" height="140" viewBox="0 0 305 140" fill="none" xmlns="http://www.w3.org/2000/svg">
<path d="M43.4382 34.9091C43.4382 39.5914 42.532 43.5459 40.7195 46.7727C38.907 49.9858 36.456 52.4231 33.3665 54.0845C30.277 55.746 26.8305 56.5767 23.027 56.5767C19.196 56.5767 15.7358 55.7391 12.6463 54.0639C9.57055 52.3887 7.12642 49.9446 5.31392 46.7315C3.50142 43.5047 2.59517 39.5639 2.59517 34.9091C2.59517 30.2268 3.50142 26.2791 5.31392 23.066C7.12642 19.8393 9.57055 17.3951 12.6463 15.7337C15.7358 14.0722 19.196 13.2415 23.027 13.2415C26.8305 13.2415 30.277 14.0722 33.3665 15.7337C36.456 17.3951 38.907 19.8393 40.7195 23.066C42.532 26.2791 43.4382 30.2268 43.4382 34.9091ZM31.9865 34.9091C31.9865 32.3277 31.6364 30.1513 30.9361 28.38C30.2495 26.6087 29.2403 25.263 27.9084 24.343C26.5765 23.4231 24.9493 22.9631 23.027 22.9631C21.0909 22.9631 19.4569 23.4231 18.125 24.343C16.7931 25.263 15.777 26.6087 15.0767 28.38C14.3902 30.1513 14.0469 32.3277 14.0469 34.9091C14.0469 37.4905 14.3902 39.6669 15.0767 41.4382C15.777 43.2095 16.7931 44.5552 18.125 45.4751C19.4569 46.3951 21.0909 46.8551 23.027 46.8551C24.9493 46.8551 26.5765 46.3951 27.9084 45.4751C29.2403 44.5552 30.2495 43.2095 30.9361 41.4382C31.6364 39.6669 31.9865 37.4905 31.9865 34.9091ZM73.9778 13.8182H85.1206V40.8821C85.1206 44.0814 84.3585 46.8482 82.8343 49.1825C81.3102 51.5168 79.1887 53.3224 76.47 54.5994C73.7512 55.8764 70.5931 56.5149 66.9956 56.5149C63.3706 56.5149 60.1987 55.8764 57.4799 54.5994C54.7612 53.3224 52.6466 51.5168 51.1362 49.1825C49.6395 46.8482 48.8912 44.0814 48.8912 40.8821V13.8182H60.0339V39.9141C60.0339 41.2597 60.3291 42.4612 60.9196 43.5185C61.51 44.562 62.3339 45.379 63.3912 45.9695C64.4484 46.5599 65.6499 46.8551 66.9956 46.8551C68.3687 46.8551 69.577 46.5599 70.6206 45.9695C71.6779 45.379 72.5017 44.562 73.0922 43.5185C73.6826 42.4612 73.9778 41.2597 73.9778 39.9141V13.8182ZM90.8052 56V13.8182H108.807C111.951 13.8182 114.69 14.388 117.025 15.5277C119.359 16.6674 121.171 18.3082 122.462 20.4503C123.753 22.5786 124.398 25.1257 124.398 28.0916C124.398 31.085 123.739 33.6184 122.421 35.6918C121.103 37.7514 119.242 39.3099 116.839 40.3672C114.45 41.4245 111.649 41.9531 108.436 41.9531H97.5197V33.2614H106.211C107.612 33.2614 108.8 33.0897 109.775 32.7464C110.75 32.3894 111.491 31.8265 111.999 31.0575C112.521 30.2886 112.782 29.3 112.782 28.0916C112.782 26.8558 112.521 25.8466 111.999 25.0639C111.491 24.2812 110.75 23.6977 109.775 23.3132C108.8 22.9287 107.612 22.7365 106.211 22.7365H101.948V56H90.8052ZM115.274 36.6598L125.819 56H113.688L103.39 36.6598H115.274ZM25.581 96.8764C25.4711 95.4621 24.9356 94.3636 23.9744 93.581C23.027 92.7983 21.6127 92.407 19.7315 92.407C18.5095 92.407 17.5071 92.558 16.7244 92.8601C15.9555 93.1484 15.3788 93.5466 14.9943 94.0547C14.6236 94.5627 14.4313 95.1463 14.4176 95.8054C14.3902 96.3409 14.4863 96.8215 14.706 97.2472C14.9394 97.6591 15.2964 98.0367 15.777 98.38C16.2713 98.7095 16.8823 99.0047 17.6101 99.2656C18.3516 99.5265 19.2166 99.7599 20.2053 99.9659L23.7067 100.728C25.986 101.222 27.9496 101.868 29.5973 102.664C31.245 103.46 32.5975 104.401 33.6548 105.486C34.7259 106.557 35.5154 107.772 36.0234 109.131C36.5452 110.491 36.813 111.981 36.8267 113.601C36.813 116.361 36.1264 118.702 34.767 120.624C33.4077 122.533 31.4579 123.995 28.9176 125.011C26.3911 126.014 23.3497 126.515 19.7933 126.515C16.1546 126.515 12.9827 125.973 10.2777 124.888C7.58641 123.803 5.49242 122.148 3.99574 119.924C2.49905 117.686 1.74384 114.83 1.73011 111.356H12.3374C12.406 112.66 12.7356 113.759 13.326 114.651C13.9302 115.53 14.7609 116.203 15.8182 116.67C16.8892 117.123 18.1593 117.349 19.6286 117.349C20.8918 117.349 21.9491 117.192 22.8004 116.876C23.6655 116.546 24.3177 116.1 24.7571 115.537C25.2102 114.974 25.4437 114.329 25.4574 113.601C25.4437 112.914 25.224 112.324 24.7983 111.83C24.3726 111.321 23.6929 110.868 22.7592 110.47C21.8255 110.072 20.576 109.694 19.0107 109.337L14.7678 108.411C11.0466 107.6 8.11506 106.248 5.97301 104.353C3.8447 102.458 2.78741 99.8698 2.80114 96.5881C2.78741 93.9242 3.50142 91.5968 4.94318 89.6058C6.38494 87.6011 8.38281 86.0426 10.9368 84.9304C13.4908 83.8044 16.4223 83.2415 19.7315 83.2415C23.0956 83.2415 26.0135 83.8113 28.4851 84.951C30.9567 86.0769 32.8653 87.6629 34.2109 89.7088C35.5566 91.7547 36.2363 94.1439 36.25 96.8764H25.581ZM41.4146 126V83.8182H71.568V92.8189H52.5574V100.398H70.0233V109.399H52.5574V116.999H71.5062V126H41.4146ZM77.438 126V83.8182H95.4395C98.5839 83.8182 101.323 84.388 103.657 85.5277C105.992 86.6674 107.804 88.3082 109.095 90.4503C110.386 92.5786 111.031 95.1257 111.031 98.0916C111.031 101.085 110.372 103.618 109.054 105.692C107.736 107.751 105.875 109.31 103.472 110.367C101.083 111.424 98.2818 111.953 95.0687 111.953H84.1525V103.261H92.8443C94.2449 103.261 95.4326 103.09 96.4075 102.746C97.3824 102.389 98.1239 101.826 98.6319 101.058C99.1537 100.289 99.4146 99.3 99.4146 98.0916C99.4146 96.8558 99.1537 95.8466 98.6319 95.0639C98.1239 94.2812 97.3824 93.6977 96.4075 93.3132C95.4326 92.9287 94.2449 92.7365 92.8443 92.7365H88.5808V126H77.438ZM101.907 106.66L112.452 126H100.321L90.0226 106.66H101.907ZM125.825 83.8182L134.661 113.827H134.99L143.826 83.8182H156.39L142.405 126H127.246L113.24 83.8182H125.825ZM171.729 83.8182V126H160.586V83.8182H171.729ZM216.522 99.5128H205.214C205.118 98.5241 204.885 97.6316 204.514 96.8352C204.157 96.0388 203.656 95.3523 203.01 94.7756C202.379 94.1851 201.617 93.7389 200.724 93.4368C199.845 93.121 198.85 92.9631 197.738 92.9631C195.788 92.9631 194.133 93.4368 192.774 94.3842C191.414 95.3317 190.378 96.6979 189.664 98.483C188.963 100.268 188.613 102.41 188.613 104.909C188.613 107.545 188.97 109.749 189.684 111.521C190.412 113.292 191.449 114.624 192.794 115.516C194.154 116.409 195.781 116.855 197.676 116.855C198.747 116.855 199.708 116.718 200.559 116.443C201.424 116.169 202.173 115.777 202.804 115.269C203.45 114.747 203.971 114.116 204.37 113.374C204.782 112.633 205.063 111.795 205.214 110.862L216.522 110.944C216.371 112.743 215.856 114.562 214.977 116.402C214.112 118.242 212.89 119.931 211.311 121.469C209.732 123.007 207.782 124.242 205.461 125.176C203.154 126.11 200.477 126.577 197.429 126.577C193.57 126.577 190.11 125.746 187.048 124.085C184 122.409 181.59 119.958 179.819 116.732C178.047 113.505 177.162 109.564 177.162 104.909C177.162 100.227 178.061 96.2791 179.86 93.066C181.672 89.8393 184.109 87.3951 187.172 85.7337C190.234 84.0722 193.653 83.2415 197.429 83.2415C200.065 83.2415 202.495 83.6053 204.72 84.3331C206.944 85.0471 208.894 86.0975 210.569 87.4844C212.244 88.8712 213.597 90.5739 214.627 92.5923C215.657 94.5971 216.288 96.9039 216.522 99.5128ZM221.872 126V83.8182H252.025V92.8189H233.014V100.398H250.48V109.399H233.014V116.999H251.963V126H221.872ZM280.634 96.8764C280.524 95.4621 279.988 94.3636 279.027 93.581C278.08 92.7983 276.665 92.407 274.784 92.407C273.562 92.407 272.56 92.558 271.777 92.8601C271.008 93.1484 270.432 93.5466 270.047 94.0547C269.676 94.5627 269.484 95.1463 269.47 95.8054C269.443 96.3409 269.539 96.8215 269.759 97.2472C269.992 97.6591 270.349 98.0367 270.83 98.38C271.324 98.7095 271.935 99.0047 272.663 99.2656C273.404 99.5265 274.269 99.7599 275.258 99.9659L278.759 100.728C281.039 101.222 283.002 101.868 284.65 102.664C286.298 103.46 287.65 104.401 288.708 105.486C289.779 106.557 290.568 107.772 291.076 109.131C291.598 110.491 291.866 111.981 291.879 113.601C291.866 116.361 291.179 118.702 289.82 120.624C288.46 122.533 286.511 123.995 283.97 125.011C281.444 126.014 278.402 126.515 274.846 126.515C271.207 126.515 268.035 125.973 265.33 124.888C262.639 123.803 260.545 122.148 259.048 119.924C257.552 117.686 256.797 114.83 256.783 111.356H267.39C267.459 112.66 267.788 113.759 268.379 114.651C268.983 115.53 269.814 116.203 270.871 116.67C271.942 117.123 273.212 117.349 274.681 117.349C275.945 117.349 277.002 117.192 277.853 116.876C278.718 116.546 279.37 116.1 279.81 115.537C280.263 114.974 280.496 114.329 280.51 113.601C280.496 112.914 280.277 112.324 279.851 111.83C279.425 111.321 278.746 110.868 277.812 110.47C276.878 110.072 275.629 109.694 274.063 109.337L269.82 108.411C266.099 107.6 263.168 106.248 261.026 104.353C258.897 102.458 257.84 99.8698 257.854 96.5881C257.84 93.9242 258.554 91.5968 259.996 89.6058C261.438 87.6011 263.436 86.0426 265.99 84.9304C268.544 83.8044 271.475 83.2415 274.784 83.2415C278.148 83.2415 281.066 83.8113 283.538 84.951C286.009 86.0769 287.918 87.6629 289.264 89.7088C290.609 91.7547 291.289 94.1439 291.303 96.8764H280.634Z" fill="#2F527A"/>
<path d="M43.4382 34.9091C43.4382 39.5914 42.532 43.5459 40.7195 46.7727C38.907 49.9858 36.456 52.4231 33.3665 54.0845C30.277 55.746 26.8305 56.5767 23.027 56.5767C19.196 56.5767 15.7358 55.7391 12.6463 54.0639C9.57055 52.3887 7.12642 49.9446 5.31392 46.7315C3.50142 43.5047 2.59517 39.5639 2.59517 34.9091C2.59517 30.2268 3.50142 26.2791 5.31392 23.066C7.12642 19.8393 9.57055 17.3951 12.6463 15.7337C15.7358 14.0722 19.196 13.2415 23.027 13.2415C26.8305 13.2415 30.277 14.0722 33.3665 15.7337C36.456 17.3951 38.907 19.8393 40.7195 23.066C42.532 26.2791 43.4382 30.2268 43.4382 34.9091ZM31.9865 34.9091C31.9865 32.3277 31.6364 30.1513 30.9361 28.38C30.2495 26.6087 29.2403 25.263 27.9084 24.343C26.5765 23.4231 24.9493 22.9631 23.027 22.9631C21.0909 22.9631 19.4569 23.4231 18.125 24.343C16.7931 25.263 15.777 26.6087 15.0767 28.38C14.3902 30.1513 14.0469 32.3277 14.0469 34.9091C14.0469 37.4905 14.3902 39.6669 15.0767 41.4382C15.777 43.2095 16.7931 44.5552 18.125 45.4751C19.4569 46.3951 21.0909 46.8551 23.027 46.8551C24.9493 46.8551 26.5765 46.3951 27.9084 45.4751C29.2403 44.5552 30.2495 43.2095 30.9361 41.4382C31.6364 39.6669 31.9865 37.4905 31.9865 34.9091ZM73.9778 13.8182H85.1206V40.8821C85.1206 44.0814 84.3585 46.8482 82.8343 49.1825C81.3102 51.5168 79.1887 53.3224 76.47 54.5994C73.7512 55.8764 70.5931 56.5149 66.9956 56.5149C63.3706 56.5149 60.1987 55.8764 57.4799 54.5994C54.7612 53.3224 52.6466 51.5168 51.1362 49.1825C49.6395 46.8482 48.8912 44.0814 48.8912 40.8821V13.8182H60.0339V39.9141C60.0339 41.2597 60.3291 42.4612 60.9196 43.5185C61.51 44.562 62.3339 45.379 63.3912 45.9695C64.4484 46.5599 65.6499 46.8551 66.9956 46.8551C68.3687 46.8551 69.577 46.5599 70.6206 45.9695C71.6779 45.379 72.5017 44.562 73.0922 43.5185C73.6826 42.4612 73.9778 41.2597 73.9778 39.9141V13.8182ZM90.8052 56V13.8182H108.807C111.951 13.8182 114.69 14.388 117.025 15.5277C119.359 16.6674 121.171 18.3082 122.462 20.4503C123.753 22.5786 124.398 25.1257 124.398 28.0916C124.398 31.085 123.739 33.6184 122.421 35.6918C121.103 37.7514 119.242 39.3099 116.839 40.3672C114.45 41.4245 111.649 41.9531 108.436 41.9531H97.5197V33.2614H106.211C107.612 33.2614 108.8 33.0897 109.775 32.7464C110.75 32.3894 111.491 31.8265 111.999 31.0575C112.521 30.2886 112.782 29.3 112.782 28.0916C112.782 26.8558 112.521 25.8466 111.999 25.0639C111.491 24.2812 110.75 23.6977 109.775 23.3132C108.8 22.9287 107.612 22.7365 106.211 22.7365H101.948V56H90.8052ZM115.274 36.6598L125.819 56H113.688L103.39 36.6598H115.274Z" fill="white"/>
</svg>
