<svg width="317" height="168" viewBox="0 0 317 168" fill="none" xmlns="http://www.w3.org/2000/svg">
<path d="M3.38139 67V16.8182H39.2536V27.5259H16.6374V36.543H37.4158V47.2507H16.6374V56.2923H39.18V67H3.38139ZM60.277 16.8182L68.7305 31.7159H69.1225L77.674 16.8182H92.4737L77.4535 41.9091L93.0373 67H77.87L69.1225 51.8327H68.7305L59.983 67H44.9137L60.326 41.9091L45.3793 16.8182H60.277ZM98.4585 67V16.8182H119.874C123.615 16.8182 126.874 17.5533 129.651 19.0234C132.428 20.4936 134.584 22.5518 136.119 25.1982C137.655 27.8445 138.423 30.9318 138.423 34.4602C138.423 38.0213 137.639 41.1168 136.07 43.7468C134.502 46.3604 132.289 48.3778 129.43 49.799C126.588 51.2202 123.255 51.9308 119.433 51.9308H106.52V41.5906H116.787C118.453 41.5906 119.866 41.3047 121.026 40.733C122.185 40.1449 123.068 39.32 123.672 38.2582C124.293 37.18 124.603 35.9141 124.603 34.4602C124.603 33.0064 124.293 31.7567 123.672 30.7113C123.068 29.6495 122.185 28.8409 121.026 28.2855C119.866 27.7138 118.453 27.4279 116.787 27.4279H111.715V67H98.4585ZM3.38139 151V100.818H39.2536V111.526H16.6374V120.543H37.4158V131.251H16.6374V140.292H39.18V151H3.38139ZM46.2369 151V100.818H67.6523C71.3931 100.818 74.652 101.496 77.429 102.852C80.206 104.208 82.3622 106.16 83.8977 108.708C85.4332 111.24 86.201 114.27 86.201 117.799C86.201 121.36 85.4169 124.374 83.8487 126.84C82.2805 129.29 80.0671 131.145 77.2085 132.402C74.3661 133.66 71.0337 134.289 67.2113 134.289H54.2248V123.949H64.565C66.2312 123.949 67.6442 123.745 68.804 123.336C69.9638 122.912 70.8459 122.242 71.4503 121.327C72.071 120.412 72.3814 119.236 72.3814 117.799C72.3814 116.328 72.071 115.128 71.4503 114.197C70.8459 113.266 69.9638 112.571 68.804 112.114C67.6442 111.657 66.2312 111.428 64.565 111.428H59.4929V151H46.2369ZM75.3462 127.992L87.8917 151H73.4595L61.2081 127.992H75.3462ZM105.448 100.818V151H92.1919V100.818H105.448ZM124.701 151H110.391L127.053 100.818H145.087L161.725 151H147.44L136.266 114.344H135.874L124.701 151ZM122.202 131.202H149.743V141.174H122.202V131.202ZM209.94 100.818V151H198.841L180.267 123.998H179.973V151H166.717V100.818H177.989L196.292 127.722H196.684V100.818H209.94ZM263.246 119.489H249.794C249.68 118.313 249.402 117.251 248.961 116.304C248.536 115.357 247.94 114.54 247.172 113.854C246.421 113.151 245.514 112.62 244.453 112.261C243.407 111.885 242.223 111.697 240.9 111.697C238.58 111.697 236.612 112.261 234.994 113.388C233.377 114.515 232.144 116.141 231.295 118.264C230.461 120.388 230.045 122.936 230.045 125.909C230.045 129.045 230.47 131.667 231.319 133.775C232.185 135.882 233.418 137.466 235.019 138.528C236.636 139.59 238.572 140.121 240.826 140.121C242.1 140.121 243.244 139.957 244.257 139.631C245.286 139.304 246.176 138.838 246.927 138.234C247.695 137.613 248.316 136.862 248.79 135.98C249.28 135.098 249.615 134.101 249.794 132.99L263.246 133.088C263.067 135.228 262.454 137.393 261.409 139.582C260.379 141.771 258.926 143.78 257.047 145.609C255.169 147.439 252.849 148.909 250.088 150.02C247.344 151.131 244.159 151.686 240.532 151.686C235.942 151.686 231.825 150.698 228.183 148.721C224.556 146.728 221.689 143.812 219.582 139.974C217.475 136.135 216.421 131.447 216.421 125.909C216.421 120.339 217.491 115.642 219.631 111.82C221.787 107.981 224.687 105.074 228.33 103.097C231.972 101.12 236.04 100.132 240.532 100.132C243.669 100.132 246.56 100.565 249.206 101.431C251.852 102.28 254.172 103.53 256.165 105.18C258.158 106.83 259.767 108.855 260.992 111.256C262.217 113.641 262.969 116.386 263.246 119.489ZM269.611 151V100.818H305.483V111.526H282.867V120.543H303.645V131.251H282.867V140.292H305.41V151H269.611Z" fill="#2F527A"/>
<path d="M3.38139 67V16.8182H39.2536V27.5259H16.6374V36.543H37.4158V47.2507H16.6374V56.2923H39.18V67H3.38139ZM60.277 16.8182L68.7305 31.7159H69.1225L77.674 16.8182H92.4737L77.4535 41.9091L93.0373 67H77.87L69.1225 51.8327H68.7305L59.983 67H44.9137L60.326 41.9091L45.3793 16.8182H60.277ZM98.4585 67V16.8182H119.874C123.615 16.8182 126.874 17.5533 129.651 19.0234C132.428 20.4936 134.584 22.5518 136.119 25.1982C137.655 27.8445 138.423 30.9318 138.423 34.4602C138.423 38.0213 137.639 41.1168 136.07 43.7468C134.502 46.3604 132.289 48.3778 129.43 49.799C126.588 51.2202 123.255 51.9308 119.433 51.9308H106.52V41.5906H116.787C118.453 41.5906 119.866 41.3047 121.026 40.733C122.185 40.1449 123.068 39.32 123.672 38.2582C124.293 37.18 124.603 35.9141 124.603 34.4602C124.603 33.0064 124.293 31.7567 123.672 30.7113C123.068 29.6495 122.185 28.8409 121.026 28.2855C119.866 27.7138 118.453 27.4279 116.787 27.4279H111.715V67H98.4585Z" fill="white"/>
</svg>
