<svg width="532" height="849" viewBox="0 0 532 849" fill="none" xmlns="http://www.w3.org/2000/svg">
<g filter="url(#filter0_d_1_2)">
<path d="M110.879 62.9354C110.377 56.4735 107.93 51.4545 103.538 47.8785C99.2095 44.3026 92.7476 42.5146 84.1527 42.5146C78.5691 42.5146 73.9893 43.2047 70.4134 44.5849C66.9001 45.9023 64.2652 47.7217 62.5085 50.043C60.8146 52.3642 59.9363 55.0305 59.8736 58.0419C59.7481 60.4886 60.1873 62.6844 61.1911 64.6293C62.2576 66.5114 63.8887 68.2366 66.0845 69.805C68.343 71.3107 71.1348 72.6596 74.4599 73.8516C77.8477 75.0436 81.8001 76.1101 86.3171 77.0511L102.315 80.533C112.729 82.7915 121.701 85.7402 129.229 89.3789C136.757 93.0176 142.937 97.3151 147.768 102.271C152.661 107.165 156.269 112.717 158.59 118.928C160.974 125.139 162.197 131.946 162.26 139.349C162.197 151.959 159.06 162.655 152.849 171.439C146.638 180.159 137.73 186.84 126.124 191.483C114.58 196.063 100.684 198.353 84.435 198.353C67.8098 198.353 53.3176 195.875 40.9585 190.918C28.6621 185.962 19.0947 178.402 12.2564 168.239C5.41809 158.013 1.96757 144.964 1.90483 129.091H50.369C50.6826 135.051 52.1883 140.07 54.886 144.148C57.6464 148.163 61.442 151.237 66.2727 153.37C71.1662 155.441 76.9693 156.476 83.6822 156.476C89.454 156.476 94.2847 155.754 98.1744 154.311C102.127 152.806 105.107 150.767 107.114 148.195C109.185 145.622 110.251 142.674 110.314 139.349C110.251 136.212 109.247 133.514 107.303 131.256C105.358 128.934 102.252 126.864 97.9862 125.045C93.7201 123.225 88.011 121.5 80.859 119.869L61.4734 115.634C44.4717 111.933 31.0774 105.753 21.2905 97.0955C11.5663 88.4379 6.73556 76.612 6.7983 61.6179C6.73556 49.447 9.99787 38.8131 16.5852 29.7163C23.1726 20.5567 32.3008 13.4361 43.9698 8.35439C55.6389 3.20998 69.0331 0.637777 84.1527 0.637777C99.5232 0.637777 112.855 3.24135 124.147 8.4485C135.44 13.5929 144.16 20.839 150.309 30.1868C156.457 39.5346 159.562 50.4508 159.625 62.9354H110.879ZM183.222 196V3.27272H320.992V44.3967H234.133V79.0273H313.934V120.151H234.133V154.876H320.709V196H183.222ZM347.812 196V3.27272H430.06C444.426 3.27272 456.942 5.8763 467.608 11.0834C478.273 16.2906 486.554 23.7876 492.451 33.5746C498.349 43.2988 501.297 54.9364 501.297 68.4876C501.297 82.1642 498.286 93.7391 492.263 103.212C486.24 112.623 477.74 119.743 466.761 124.574C455.844 129.405 443.046 131.82 428.366 131.82H378.49V92.108H418.202C424.601 92.108 430.028 91.3237 434.483 89.7553C438.937 88.1242 442.325 85.552 444.646 82.0387C447.03 78.5254 448.222 74.0084 448.222 68.4876C448.222 62.8413 447.03 58.2301 444.646 54.6541C442.325 51.0781 438.937 48.4118 434.483 46.6552C430.028 44.8985 424.601 44.0202 418.202 44.0202H398.723V196H347.812ZM459.609 107.635L507.79 196H452.362L405.31 107.635H459.609ZM57.521 324.273L97.892 461.384H99.3977L139.769 324.273H197.173L133.276 517H64.0142L0.0227275 324.273H57.521ZM267.258 324.273V517H216.347V324.273H267.258ZM471.913 395.981H420.249C419.81 391.464 418.743 387.386 417.05 383.747C415.418 380.108 413.128 376.972 410.18 374.337C407.294 371.639 403.812 369.6 399.734 368.22C395.719 366.777 391.171 366.055 386.089 366.055C377.18 366.055 369.621 368.22 363.41 372.549C357.199 376.877 352.462 383.12 349.2 391.276C346 399.431 344.4 409.218 344.4 420.636C344.4 432.682 346.032 442.751 349.294 450.844C352.619 458.937 357.356 465.023 363.504 469.1C369.715 473.178 377.149 475.217 385.807 475.217C390.7 475.217 395.092 474.59 398.981 473.335C402.934 472.08 406.353 470.292 409.239 467.971C412.187 465.587 414.571 462.701 416.391 459.314C418.273 455.926 419.559 452.099 420.249 447.833L471.913 448.209C471.223 456.428 468.87 464.74 464.855 473.147C460.903 481.554 455.319 489.27 448.104 496.297C440.89 503.323 431.981 508.97 421.378 513.236C410.839 517.502 398.605 519.635 384.677 519.635C367.048 519.635 351.239 515.839 337.248 508.248C323.321 500.594 312.311 489.396 304.218 474.653C296.124 459.91 292.078 441.904 292.078 420.636C292.078 399.243 296.187 381.206 304.406 366.526C312.687 351.783 323.823 340.616 337.813 333.024C351.803 325.433 367.425 321.638 384.677 321.638C396.723 321.638 407.827 323.3 417.991 326.625C428.154 329.888 437.063 334.687 444.716 341.023C452.37 347.36 458.55 355.139 463.255 364.362C467.96 373.521 470.846 384.061 471.913 395.981ZM6.98651 838V645.273H144.756V686.397H57.8974V721.027H137.699V762.151H57.8974V796.876H144.474V838H6.98651ZM275.468 704.935C274.967 698.473 272.52 693.455 268.128 689.879C263.799 686.303 257.337 684.515 248.743 684.515C243.159 684.515 238.579 685.205 235.003 686.585C231.49 687.902 228.855 689.722 227.098 692.043C225.404 694.364 224.526 697.031 224.463 700.042C224.338 702.489 224.777 704.684 225.781 706.629C226.847 708.511 228.479 710.237 230.674 711.805C232.933 713.311 235.725 714.66 239.05 715.852C242.438 717.044 246.39 718.11 250.907 719.051L266.905 722.533C277.319 724.792 286.29 727.74 293.819 731.379C301.347 735.018 307.527 739.315 312.358 744.271C317.251 749.165 320.858 754.717 323.18 760.928C325.564 767.139 326.787 773.946 326.85 781.349C326.787 793.959 323.65 804.655 317.439 813.439C311.228 822.159 302.32 828.84 290.713 833.483C279.17 838.063 265.274 840.353 249.025 840.353C232.4 840.353 217.907 837.875 205.548 832.918C193.252 827.962 183.685 820.402 176.846 810.239C170.008 800.013 166.557 786.964 166.495 771.091H214.959C215.272 777.051 216.778 782.07 219.476 786.148C222.236 790.163 226.032 793.237 230.863 795.37C235.756 797.441 241.559 798.476 248.272 798.476C254.044 798.476 258.875 797.754 262.764 796.311C266.717 794.806 269.697 792.767 271.704 790.195C273.775 787.622 274.841 784.674 274.904 781.349C274.841 778.212 273.837 775.514 271.892 773.256C269.948 770.934 266.842 768.864 262.576 767.045C258.31 765.225 252.601 763.5 245.449 761.869L226.063 757.634C209.062 753.933 195.667 747.753 185.88 739.096C176.156 730.438 171.325 718.612 171.388 703.618C171.325 691.447 174.588 680.813 181.175 671.716C187.762 662.557 196.891 655.436 208.56 650.354C220.229 645.21 233.623 642.638 248.743 642.638C264.113 642.638 277.445 645.241 288.737 650.449C300.03 655.593 308.75 662.839 314.898 672.187C321.047 681.535 324.152 692.451 324.215 704.935H275.468ZM376.043 840.917C368.891 840.917 362.743 838.408 357.599 833.389C352.517 828.37 350.007 822.253 350.07 815.038C350.007 808.012 352.517 802.02 357.599 797.064C362.743 792.045 368.891 789.536 376.043 789.536C382.819 789.536 388.81 792.045 394.017 797.064C399.224 802.02 401.859 808.012 401.922 815.038C401.859 819.869 400.605 824.229 398.158 828.119C395.711 832.009 392.543 835.114 388.653 837.435C384.764 839.757 380.56 840.917 376.043 840.917ZM458.338 840.917C451.186 840.917 445.038 838.408 439.894 833.389C434.812 828.37 432.302 822.253 432.365 815.038C432.302 808.012 434.812 802.02 439.894 797.064C445.038 792.045 451.186 789.536 458.338 789.536C465.114 789.536 471.105 792.045 476.312 797.064C481.519 802.02 484.154 808.012 484.217 815.038C484.154 819.869 482.9 824.229 480.453 828.119C478.006 832.009 474.838 835.114 470.948 837.435C467.059 839.757 462.855 840.917 458.338 840.917Z" fill="#2F527A"/>
</g>
<defs>
<filter id="filter0_d_1_2" x="0.0227203" y="0.637787" width="531.768" height="848.279" filterUnits="userSpaceOnUse" color-interpolation-filters="sRGB">
<feFlood flood-opacity="0" result="BackgroundImageFix"/>
<feColorMatrix in="SourceAlpha" type="matrix" values="0 0 0 0 0 0 0 0 0 0 0 0 0 0 0 0 0 0 127 0" result="hardAlpha"/>
<feOffset dx="20" dy="4"/>
<feGaussianBlur stdDeviation="2"/>
<feComposite in2="hardAlpha" operator="out"/>
<feColorMatrix type="matrix" values="0 0 0 0 0 0 0 0 0 0 0 0 0 0 0 0 0 0 0.25 0"/>
<feBlend mode="normal" in2="BackgroundImageFix" result="effect1_dropShadow_1_2"/>
<feBlend mode="normal" in="SourceGraphic" in2="effect1_dropShadow_1_2" result="shape"/>
</filter>
</defs>
</svg>
