<svg width="327" height="49" viewBox="0 0 327 49" fill="none" xmlns="http://www.w3.org/2000/svg">
<path d="M27.6683 15.3615C27.5452 13.7765 26.9451 12.5455 25.8679 11.6683C24.8061 10.7912 23.2211 10.3526 21.1129 10.3526C19.7434 10.3526 18.62 10.5219 17.7429 10.8604C16.8812 11.1836 16.2348 11.6299 15.804 12.1992C15.3885 12.7686 15.1731 13.4226 15.1577 14.1612C15.1269 14.7614 15.2346 15.3 15.4808 15.777C15.7424 16.2386 16.1425 16.6618 16.6811 17.0465C17.2351 17.4158 17.9199 17.7467 18.7354 18.0391C19.5664 18.3314 20.5359 18.593 21.6438 18.8239L25.5678 19.6779C28.1223 20.2319 30.3228 20.9551 32.1694 21.8477C34.016 22.7402 35.5317 23.7943 36.7166 25.0099C37.9169 26.2102 38.8017 27.5721 39.3711 29.0955C39.9558 30.619 40.2559 32.2886 40.2713 34.1044C40.2559 37.1974 39.4865 39.8211 37.9631 41.9755C36.4396 44.1145 34.2545 45.7533 31.4077 46.892C28.5762 48.0154 25.1677 48.5771 21.1822 48.5771C17.1043 48.5771 13.5496 47.9692 10.5181 46.7536C7.50201 45.5379 5.1553 43.6836 3.47798 41.1907C1.80066 38.6824 0.954309 35.4817 0.938921 31.5884H12.8264C12.9033 33.0503 13.2726 34.2814 13.9343 35.2816C14.6114 36.2665 15.5424 37.0205 16.7273 37.5437C17.9276 38.0515 19.351 38.3054 20.9975 38.3054C22.4132 38.3054 23.5981 38.1284 24.5522 37.7745C25.5217 37.4052 26.2526 36.9051 26.745 36.2741C27.2528 35.6432 27.5144 34.92 27.5298 34.1044C27.5144 33.335 27.2682 32.6733 26.7912 32.1193C26.3142 31.55 25.5524 31.0421 24.506 30.5959C23.4596 30.1496 22.0593 29.7264 20.305 29.3263L15.5501 28.2876C11.3799 27.3797 8.09446 25.864 5.69389 23.7404C3.30871 21.6168 2.12382 18.7161 2.1392 15.0383C2.12382 12.053 2.92401 9.44472 4.53977 7.21342C6.15554 4.96674 8.39453 3.22017 11.2567 1.97372C14.119 0.711883 17.4044 0.0809641 21.1129 0.0809641C24.8831 0.0809641 28.1531 0.719577 30.9229 1.9968C33.6928 3.25864 35.8318 5.03598 37.3398 7.32883C38.8479 9.62168 39.6096 12.2992 39.625 15.3615H27.6683ZM45.4129 48V0.727271H79.2055V10.8143H57.9005V19.3086H77.4743V29.3956H57.9005V37.913H79.1363V48H45.4129ZM85.784 48V0.727271H105.958C109.482 0.727271 112.552 1.36588 115.168 2.64311C117.784 3.92034 119.815 5.75923 121.262 8.1598C122.708 10.545 123.431 13.3995 123.431 16.7234C123.431 20.078 122.693 22.9171 121.215 25.2408C119.738 27.549 117.653 29.2956 114.96 30.4805C112.283 31.6654 109.143 32.2578 105.543 32.2578H93.3089V22.517H103.05C104.619 22.517 105.95 22.3247 107.043 21.94C108.135 21.5399 108.966 20.909 109.536 20.0472C110.121 19.1855 110.413 18.0775 110.413 16.7234C110.413 15.3384 110.121 14.2074 109.536 13.3303C108.966 12.4531 108.135 11.7991 107.043 11.3683C105.95 10.9374 104.619 10.7219 103.05 10.7219H98.2716V48H85.784ZM113.206 26.3256L125.024 48H111.429L99.8873 26.3256H113.206ZM140.01 0.727271L149.913 34.3583H150.282L160.184 0.727271H174.265L158.592 48H141.603L125.907 0.727271H140.01ZM191.455 0.727271V48H178.968V0.727271H191.455ZM241.654 18.316H228.981C228.874 17.2081 228.612 16.2079 228.197 15.3153C227.796 14.4228 227.235 13.6534 226.512 13.0071C225.804 12.3454 224.95 11.8453 223.949 11.5067C222.965 11.1528 221.849 10.9758 220.602 10.9758C218.417 10.9758 216.563 11.5067 215.04 12.5685C213.516 13.6303 212.354 15.1615 211.554 17.1619C210.769 19.1624 210.377 21.563 210.377 24.3636C210.377 27.3182 210.777 29.788 211.577 31.7731C212.393 33.7582 213.555 35.2508 215.063 36.2511C216.586 37.2513 218.41 37.7514 220.533 37.7514C221.733 37.7514 222.811 37.5975 223.765 37.2898C224.734 36.982 225.573 36.5434 226.281 35.9741C227.004 35.3893 227.589 34.6815 228.035 33.8505C228.497 33.0195 228.812 32.0808 228.981 31.0344L241.654 31.1268C241.484 33.1426 240.907 35.1816 239.922 37.2436C238.953 39.3056 237.583 41.1984 235.814 42.9219C234.044 44.6454 231.859 46.0303 229.258 47.0767C226.673 48.1231 223.672 48.6463 220.256 48.6463C215.932 48.6463 212.054 47.7153 208.623 45.8533C205.206 43.976 202.506 41.2292 200.521 37.6129C198.536 33.9967 197.543 29.5803 197.543 24.3636C197.543 19.1162 198.551 14.6921 200.567 11.0913C202.598 7.47502 205.33 4.73591 208.761 2.87393C212.193 1.01195 216.024 0.0809641 220.256 0.0809641C223.211 0.0809641 225.934 0.488753 228.427 1.30433C230.92 2.10452 233.105 3.28172 234.983 4.83594C236.86 6.39015 238.376 8.29829 239.53 10.5604C240.684 12.8071 241.392 15.3923 241.654 18.316ZM247.649 48V0.727271H281.442V10.8143H260.137V19.3086H279.711V29.3956H260.137V37.913H281.373V48H247.649ZM313.503 15.3615C313.38 13.7765 312.78 12.5455 311.703 11.6683C310.641 10.7912 309.056 10.3526 306.948 10.3526C305.578 10.3526 304.455 10.5219 303.578 10.8604C302.716 11.1836 302.07 11.6299 301.639 12.1992C301.223 12.7686 301.008 13.4226 300.993 14.1612C300.962 14.7614 301.07 15.3 301.316 15.777C301.577 16.2386 301.977 16.6618 302.516 17.0465C303.07 17.4158 303.755 17.7467 304.57 18.0391C305.401 18.3314 306.371 18.593 307.479 18.8239L311.403 19.6779C313.957 20.2319 316.158 20.9551 318.004 21.8477C319.851 22.7402 321.367 23.7943 322.552 25.0099C323.752 26.2102 324.637 27.5721 325.206 29.0955C325.791 30.619 326.091 32.2886 326.106 34.1044C326.091 37.1974 325.321 39.8211 323.798 41.9755C322.275 44.1145 320.089 45.7533 317.243 46.892C314.411 48.0154 311.003 48.5771 307.017 48.5771C302.939 48.5771 299.385 47.9692 296.353 46.7536C293.337 45.5379 290.99 43.6836 289.313 41.1907C287.636 38.6824 286.789 35.4817 286.774 31.5884H298.661C298.738 33.0503 299.108 34.2814 299.769 35.2816C300.446 36.2665 301.377 37.0205 302.562 37.5437C303.763 38.0515 305.186 38.3054 306.832 38.3054C308.248 38.3054 309.433 38.1284 310.387 37.7745C311.357 37.4052 312.088 36.9051 312.58 36.2741C313.088 35.6432 313.349 34.92 313.365 34.1044C313.349 33.335 313.103 32.6733 312.626 32.1193C312.149 31.55 311.387 31.0421 310.341 30.5959C309.295 30.1496 307.894 29.7264 306.14 29.3263L301.385 28.2876C297.215 27.3797 293.929 25.864 291.529 23.7404C289.144 21.6168 287.959 18.7161 287.974 15.0383C287.959 12.053 288.759 9.44472 290.375 7.21342C291.991 4.96674 294.229 3.22017 297.092 1.97372C299.954 0.711883 303.239 0.0809641 306.948 0.0809641C310.718 0.0809641 313.988 0.719577 316.758 1.9968C319.528 3.25864 321.667 5.03598 323.175 7.32883C324.683 9.62168 325.445 12.2992 325.46 15.3615H313.503Z" fill="#2F527A"/>
</svg>
