<svg width="449" height="49" viewBox="0 0 449 49" fill="none" xmlns="http://www.w3.org/2000/svg">
<path d="M0.754261 11.0682V0.727271H41.8409V11.0682H27.6222V48H14.973V11.0682H0.754261ZM46.6709 48V0.727271H67.0757C70.5843 0.727271 73.6542 1.36588 76.2856 2.64311C78.917 3.92034 80.9636 5.75923 82.4255 8.1598C83.8874 10.5604 84.6183 13.438 84.6183 16.7926C84.6183 20.178 83.8643 23.0326 82.3563 25.3562C80.8636 27.6798 78.7631 29.4341 76.0548 30.619C73.3618 31.8039 70.2149 32.3963 66.6141 32.3963H54.4266V22.4247H64.0289C65.5369 22.4247 66.8218 22.2401 67.8836 21.8707C68.9608 21.486 69.7841 20.8782 70.3534 20.0472C70.9382 19.2163 71.2306 18.1314 71.2306 16.7926C71.2306 15.4384 70.9382 14.3382 70.3534 13.4918C69.7841 12.6301 68.9608 11.9992 67.8836 11.5991C66.8218 11.1836 65.5369 10.9758 64.0289 10.9758H59.5047V48H46.6709ZM74.3698 26.3026L86.1879 48H72.2462L60.705 26.3026H74.3698ZM102.369 48H88.5193L104.123 0.727271H121.666L137.269 48H123.42L113.079 13.7457H112.71L102.369 48ZM99.7835 29.3494H125.82V38.9517H99.7835V29.3494ZM182.724 0.727271V48H172.014L154.933 23.1634H154.656V48H141.822V0.727271H152.717L169.521 25.4716H169.89V0.727271H182.724ZM214.278 15.5C214.155 13.9612 213.578 12.7609 212.547 11.8991C211.531 11.0374 209.985 10.6065 207.907 10.6065C206.584 10.6065 205.499 10.7681 204.653 11.0913C203.822 11.399 203.206 11.8222 202.806 12.3608C202.406 12.8994 202.198 13.5149 202.183 14.2074C202.152 14.7768 202.252 15.2923 202.483 15.7539C202.729 16.2002 203.114 16.608 203.637 16.9773C204.16 17.3312 204.829 17.6544 205.645 17.9467C206.461 18.2391 207.43 18.5007 208.553 18.7315L212.431 19.5625C215.047 20.1165 217.286 20.8474 219.148 21.7553C221.01 22.6632 222.534 23.7327 223.719 24.9638C224.903 26.1795 225.773 27.549 226.327 29.0724C226.896 30.5959 227.189 32.2578 227.204 34.0582C227.189 37.1667 226.412 39.7981 224.873 41.9524C223.334 44.1068 221.133 45.7456 218.271 46.869C215.424 47.9923 212 48.554 207.999 48.554C203.891 48.554 200.305 47.9461 197.243 46.7305C194.196 45.5148 191.826 43.6451 190.134 41.1214C188.456 38.5824 187.61 35.3355 187.595 31.3807H199.782C199.859 32.8272 200.221 34.0428 200.867 35.0277C201.513 36.0125 202.421 36.7589 203.591 37.2667C204.776 37.7745 206.184 38.0284 207.815 38.0284C209.184 38.0284 210.331 37.8591 211.254 37.5206C212.177 37.1821 212.878 36.7127 213.355 36.1126C213.832 35.5124 214.078 34.8277 214.093 34.0582C214.078 33.335 213.839 32.7041 213.378 32.1655C212.931 31.6115 212.193 31.1191 211.162 30.6882C210.131 30.2419 208.738 29.8265 206.984 29.4418L202.275 28.4261C198.089 27.5182 194.789 26.0025 192.373 23.8789C189.972 21.7399 188.78 18.8239 188.795 15.1307C188.78 12.13 189.58 9.50627 191.195 7.25959C192.827 4.99751 195.081 3.23556 197.959 1.97372C200.852 0.711883 204.168 0.0809641 207.907 0.0809641C211.723 0.0809641 215.024 0.719577 217.809 1.9968C220.595 3.27403 222.741 5.07446 224.249 7.39808C225.773 9.70632 226.542 12.407 226.558 15.5H214.278ZM232.086 48V0.727271H244.92V37.6591H264.032V48H232.086ZM281.5 48H267.65L283.254 0.727271H300.796L316.4 48H302.551L292.21 13.7457H291.84L281.5 48ZM278.914 29.3494H304.951V38.9517H278.914V29.3494ZM313.694 11.0682V0.727271H354.78V11.0682H340.562V48H327.912V11.0682H313.694ZM403.184 24.3636C403.184 29.6264 402.161 34.0659 400.114 37.6822C398.068 41.283 395.305 44.0144 391.828 45.8764C388.35 47.723 384.472 48.6463 380.194 48.6463C375.885 48.6463 371.992 47.7153 368.514 45.8533C365.052 43.976 362.298 41.2369 360.251 37.636C358.22 34.0198 357.204 29.5956 357.204 24.3636C357.204 19.1009 358.22 14.669 360.251 11.0682C362.298 7.45194 365.052 4.72052 368.514 2.87393C371.992 1.01195 375.885 0.0809641 380.194 0.0809641C384.472 0.0809641 388.35 1.01195 391.828 2.87393C395.305 4.72052 398.068 7.45194 400.114 11.0682C402.161 14.669 403.184 19.1009 403.184 24.3636ZM389.981 24.3636C389.981 21.5322 389.604 19.147 388.85 17.2081C388.111 15.2538 387.011 13.7765 385.549 12.7763C384.103 11.7607 382.318 11.2528 380.194 11.2528C378.07 11.2528 376.278 11.7607 374.816 12.7763C373.369 13.7765 372.269 15.2538 371.515 17.2081C370.776 19.147 370.407 21.5322 370.407 24.3636C370.407 27.1951 370.776 29.5879 371.515 31.5423C372.269 33.4812 373.369 34.9585 374.816 35.9741C376.278 36.9743 378.07 37.4744 380.194 37.4744C382.318 37.4744 384.103 36.9743 385.549 35.9741C387.011 34.9585 388.111 33.4812 388.85 31.5423C389.604 29.5879 389.981 27.1951 389.981 24.3636ZM409.122 48V0.727271H429.527C433.035 0.727271 436.105 1.36588 438.737 2.64311C441.368 3.92034 443.415 5.75923 444.877 8.1598C446.339 10.5604 447.07 13.438 447.07 16.7926C447.07 20.178 446.315 23.0326 444.807 25.3562C443.315 27.6798 441.214 29.4341 438.506 30.619C435.813 31.8039 432.666 32.3963 429.065 32.3963H416.878V22.4247H426.48C427.988 22.4247 429.273 22.2401 430.335 21.8707C431.412 21.486 432.235 20.8782 432.805 20.0472C433.389 19.2163 433.682 18.1314 433.682 16.7926C433.682 15.4384 433.389 14.3382 432.805 13.4918C432.235 12.6301 431.412 11.9992 430.335 11.5991C429.273 11.1836 427.988 10.9758 426.48 10.9758H421.956V48H409.122ZM436.821 26.3026L448.639 48H434.697L423.156 26.3026H436.821Z" fill="white"/>
</svg>
